<?xml version="1.0" encoding="UTF-8"?>
<svg id="Layer_1" data-name="Layer 1" xmlns="http://www.w3.org/2000/svg" viewBox="0 0 773.83 793">
  <defs>
    <style>
      .cls-1 {
        fill: none;
        stroke: #231f20;
        stroke-miterlimit: 10;
      }

      .cls-2 {
        fill: #00aeef;
      }
    </style>
  </defs>
  <line class="cls-2" x1="663.46" y1="217.05" x2="661.78" y2="218.17"/>
  <path class="cls-1" d="M84.61,563.85c-.23-.25-.45-.51-.67-.76l.33-.22"/>
  <path class="cls-2" d="M599.58,192.04l-73.96-25.62-101.76-35.24,24.37-23.16c-35.97-15.83-76.14-24.68-118.5-24.68-154.42,0-279.61,117.54-279.61,262.53,0,41.95,10.48,81.59,29.11,116.76l-44.94,29.82C12.34,448.3,0,398.52,0,345.87,0,163.77,147.63,16.14,329.73,16.14c61.06,0,118.24,16.6,167.28,45.53l48.74-46.31,53.83,176.68Z"/>
  <path class="cls-2" d="M663.46,347.87c0,182.1-147.63,329.73-329.73,329.73-59.91,0-116.09-15.98-164.5-43.91l-44.79,45.75-39.83-115.59-.34-.98-20.01-58.06,73.54,22.53,104.26,31.95-26.16,26.73c35.8,15.64,75.73,24.38,117.83,24.38,154.42,0,279.61-117.54,279.61-262.53,0-41.95-10.48-81.59-29.11-116.76l44.94-29.82c21.95,44.15,34.29,93.93,34.29,146.58Z"/>
</svg>